<mxfile host="app.diagrams.net" agent="Mozilla/5.0 (Macintosh; Intel Mac OS X 10_15_7) AppleWebKit/537.36 (KHTML, like Gecko) Chrome/133.0.0.0 Safari/537.36" version="25.0.3">
  <diagram name="Sayfa -1" id="T5c-29nnTJdJgavPYzRY">
    <mxGraphModel grid="1" page="1" gridSize="10" guides="1" tooltips="1" connect="1" arrows="1" fold="1" pageScale="1" pageWidth="1169" pageHeight="827" math="0" shadow="0">
      <root>
        <mxCell id="0" />
        <mxCell id="1" parent="0" />
        <mxCell id="crF3Aw2DtqwCxkJPiTV9-102" value="" style="rounded=0;whiteSpace=wrap;html=1;fillColor=none;" vertex="1" parent="1">
          <mxGeometry width="1160" height="820" as="geometry" />
        </mxCell>
        <mxCell id="crF3Aw2DtqwCxkJPiTV9-1" value="VPC" style="sketch=0;outlineConnect=0;gradientColor=none;html=1;whiteSpace=wrap;fontSize=12;fontStyle=0;shape=mxgraph.aws4.group;grIcon=mxgraph.aws4.group_vpc;strokeColor=#879196;fillColor=none;verticalAlign=top;align=left;spacingLeft=30;fontColor=#879196;dashed=0;" vertex="1" parent="1">
          <mxGeometry x="40" y="360" width="480" height="440" as="geometry" />
        </mxCell>
        <mxCell id="crF3Aw2DtqwCxkJPiTV9-91" style="edgeStyle=orthogonalEdgeStyle;rounded=0;orthogonalLoop=1;jettySize=auto;html=1;" edge="1" parent="1" source="crF3Aw2DtqwCxkJPiTV9-5" target="crF3Aw2DtqwCxkJPiTV9-27">
          <mxGeometry relative="1" as="geometry">
            <Array as="points">
              <mxPoint x="560" y="520" />
              <mxPoint x="560" y="560" />
            </Array>
          </mxGeometry>
        </mxCell>
        <mxCell id="crF3Aw2DtqwCxkJPiTV9-92" style="edgeStyle=orthogonalEdgeStyle;rounded=0;orthogonalLoop=1;jettySize=auto;html=1;" edge="1" parent="1" source="crF3Aw2DtqwCxkJPiTV9-5" target="crF3Aw2DtqwCxkJPiTV9-82">
          <mxGeometry relative="1" as="geometry">
            <Array as="points">
              <mxPoint x="560" y="480" />
              <mxPoint x="560" y="455" />
            </Array>
          </mxGeometry>
        </mxCell>
        <mxCell id="crF3Aw2DtqwCxkJPiTV9-93" value="PULL IMAGE" style="edgeStyle=orthogonalEdgeStyle;rounded=0;orthogonalLoop=1;jettySize=auto;html=1;fontSize=8;" edge="1" parent="1" source="crF3Aw2DtqwCxkJPiTV9-5" target="crF3Aw2DtqwCxkJPiTV9-60">
          <mxGeometry x="-0.3846" relative="1" as="geometry">
            <Array as="points">
              <mxPoint x="420" y="320" />
            </Array>
            <mxPoint as="offset" />
          </mxGeometry>
        </mxCell>
        <mxCell id="crF3Aw2DtqwCxkJPiTV9-95" style="edgeStyle=orthogonalEdgeStyle;rounded=0;orthogonalLoop=1;jettySize=auto;html=1;" edge="1" parent="1" source="crF3Aw2DtqwCxkJPiTV9-5" target="crF3Aw2DtqwCxkJPiTV9-11">
          <mxGeometry relative="1" as="geometry">
            <Array as="points">
              <mxPoint x="540" y="540" />
              <mxPoint x="540" y="680" />
            </Array>
          </mxGeometry>
        </mxCell>
        <mxCell id="crF3Aw2DtqwCxkJPiTV9-97" style="edgeStyle=orthogonalEdgeStyle;rounded=0;orthogonalLoop=1;jettySize=auto;html=1;" edge="1" parent="1" source="crF3Aw2DtqwCxkJPiTV9-5" target="crF3Aw2DtqwCxkJPiTV9-25">
          <mxGeometry relative="1" as="geometry" />
        </mxCell>
        <mxCell id="crF3Aw2DtqwCxkJPiTV9-5" value="Private subnet" style="points=[[0,0],[0.25,0],[0.5,0],[0.75,0],[1,0],[1,0.25],[1,0.5],[1,0.75],[1,1],[0.75,1],[0.5,1],[0.25,1],[0,1],[0,0.75],[0,0.5],[0,0.25]];outlineConnect=0;gradientColor=none;html=1;whiteSpace=wrap;fontSize=12;fontStyle=0;container=1;pointerEvents=0;collapsible=0;recursiveResize=0;shape=mxgraph.aws4.group;grIcon=mxgraph.aws4.group_security_group;grStroke=0;strokeColor=#00A4A6;fillColor=#E6F6F7;verticalAlign=top;align=left;spacingLeft=30;fontColor=#147EBA;dashed=0;" vertex="1" parent="1">
          <mxGeometry x="80" y="400" width="400" height="160" as="geometry" />
        </mxCell>
        <mxCell id="crF3Aw2DtqwCxkJPiTV9-7" value="AWS Lambda" style="sketch=0;outlineConnect=0;fontColor=#232F3E;gradientColor=none;strokeColor=#ffffff;fillColor=#232F3E;dashed=0;verticalLabelPosition=middle;verticalAlign=bottom;align=center;html=1;whiteSpace=wrap;fontSize=10;fontStyle=1;spacing=3;shape=mxgraph.aws4.productIcon;prIcon=mxgraph.aws4.lambda;" vertex="1" parent="crF3Aw2DtqwCxkJPiTV9-5">
          <mxGeometry x="40" y="41" width="80" height="100" as="geometry" />
        </mxCell>
        <mxCell id="crF3Aw2DtqwCxkJPiTV9-29" value="AWS Lambda" style="sketch=0;outlineConnect=0;fontColor=#232F3E;gradientColor=none;strokeColor=#ffffff;fillColor=#232F3E;dashed=0;verticalLabelPosition=middle;verticalAlign=bottom;align=center;html=1;whiteSpace=wrap;fontSize=10;fontStyle=1;spacing=3;shape=mxgraph.aws4.productIcon;prIcon=mxgraph.aws4.lambda;" vertex="1" parent="crF3Aw2DtqwCxkJPiTV9-5">
          <mxGeometry x="160" y="41" width="80" height="100" as="geometry" />
        </mxCell>
        <mxCell id="crF3Aw2DtqwCxkJPiTV9-30" value="AWS Lambda" style="sketch=0;outlineConnect=0;fontColor=#232F3E;gradientColor=none;strokeColor=#ffffff;fillColor=#232F3E;dashed=0;verticalLabelPosition=middle;verticalAlign=bottom;align=center;html=1;whiteSpace=wrap;fontSize=10;fontStyle=1;spacing=3;shape=mxgraph.aws4.productIcon;prIcon=mxgraph.aws4.lambda;" vertex="1" parent="crF3Aw2DtqwCxkJPiTV9-5">
          <mxGeometry x="285" y="41" width="80" height="100" as="geometry" />
        </mxCell>
        <mxCell id="crF3Aw2DtqwCxkJPiTV9-89" style="edgeStyle=orthogonalEdgeStyle;rounded=0;orthogonalLoop=1;jettySize=auto;html=1;" edge="1" parent="1" source="crF3Aw2DtqwCxkJPiTV9-6" target="crF3Aw2DtqwCxkJPiTV9-25">
          <mxGeometry relative="1" as="geometry" />
        </mxCell>
        <mxCell id="crF3Aw2DtqwCxkJPiTV9-6" value="Public subnet" style="points=[[0,0],[0.25,0],[0.5,0],[0.75,0],[1,0],[1,0.25],[1,0.5],[1,0.75],[1,1],[0.75,1],[0.5,1],[0.25,1],[0,1],[0,0.75],[0,0.5],[0,0.25]];outlineConnect=0;gradientColor=none;html=1;whiteSpace=wrap;fontSize=12;fontStyle=0;container=1;pointerEvents=0;collapsible=0;recursiveResize=0;shape=mxgraph.aws4.group;grIcon=mxgraph.aws4.group_security_group;grStroke=0;strokeColor=#7AA116;fillColor=#F2F6E8;verticalAlign=top;align=left;spacingLeft=30;fontColor=#248814;dashed=0;" vertex="1" parent="1">
          <mxGeometry x="80" y="600" width="160" height="160" as="geometry" />
        </mxCell>
        <mxCell id="crF3Aw2DtqwCxkJPiTV9-16" value="Amazon EC2" style="sketch=0;outlineConnect=0;fontColor=#232F3E;gradientColor=none;strokeColor=#ffffff;fillColor=#232F3E;dashed=0;verticalLabelPosition=middle;verticalAlign=bottom;align=center;html=1;whiteSpace=wrap;fontSize=10;fontStyle=1;spacing=3;shape=mxgraph.aws4.productIcon;prIcon=mxgraph.aws4.ec2;" vertex="1" parent="crF3Aw2DtqwCxkJPiTV9-6">
          <mxGeometry x="40" y="40" width="80" height="100" as="geometry" />
        </mxCell>
        <mxCell id="crF3Aw2DtqwCxkJPiTV9-86" value="TRIGGER" style="edgeStyle=orthogonalEdgeStyle;rounded=0;orthogonalLoop=1;jettySize=auto;html=1;fontSize=8;" edge="1" parent="1" source="crF3Aw2DtqwCxkJPiTV9-12" target="crF3Aw2DtqwCxkJPiTV9-73">
          <mxGeometry relative="1" as="geometry" />
        </mxCell>
        <mxCell id="crF3Aw2DtqwCxkJPiTV9-12" value="AWS CodePipeline" style="sketch=0;outlineConnect=0;fontColor=#232F3E;gradientColor=none;strokeColor=#ffffff;fillColor=#232F3E;dashed=0;verticalLabelPosition=middle;verticalAlign=bottom;align=center;html=1;whiteSpace=wrap;fontSize=10;fontStyle=1;spacing=3;shape=mxgraph.aws4.productIcon;prIcon=mxgraph.aws4.codepipeline;" vertex="1" parent="1">
          <mxGeometry x="720" y="280" width="80" height="110" as="geometry" />
        </mxCell>
        <mxCell id="crF3Aw2DtqwCxkJPiTV9-15" value="AWS CodeCommit" style="sketch=0;outlineConnect=0;fontColor=#232F3E;gradientColor=none;strokeColor=#ffffff;fillColor=#232F3E;dashed=0;verticalLabelPosition=middle;verticalAlign=bottom;align=center;html=1;whiteSpace=wrap;fontSize=10;fontStyle=1;spacing=3;shape=mxgraph.aws4.productIcon;prIcon=mxgraph.aws4.codecommit;" vertex="1" parent="1">
          <mxGeometry x="880" y="80" width="80" height="110" as="geometry" />
        </mxCell>
        <mxCell id="crF3Aw2DtqwCxkJPiTV9-25" value="Private database subnet" style="points=[[0,0],[0.25,0],[0.5,0],[0.75,0],[1,0],[1,0.25],[1,0.5],[1,0.75],[1,1],[0.75,1],[0.5,1],[0.25,1],[0,1],[0,0.75],[0,0.5],[0,0.25]];outlineConnect=0;gradientColor=none;html=1;whiteSpace=wrap;fontSize=12;fontStyle=0;container=1;pointerEvents=0;collapsible=0;recursiveResize=0;shape=mxgraph.aws4.group;grIcon=mxgraph.aws4.group_security_group;grStroke=0;strokeColor=#00A4A6;fillColor=#E6F6F7;verticalAlign=top;align=left;spacingLeft=30;fontColor=#147EBA;dashed=0;" vertex="1" parent="1">
          <mxGeometry x="320" y="600" width="160" height="160" as="geometry" />
        </mxCell>
        <mxCell id="crF3Aw2DtqwCxkJPiTV9-10" value="Amazon RDS" style="sketch=0;outlineConnect=0;fontColor=#232F3E;gradientColor=none;strokeColor=#ffffff;fillColor=#232F3E;dashed=0;verticalLabelPosition=middle;verticalAlign=bottom;align=center;html=1;whiteSpace=wrap;fontSize=10;fontStyle=1;spacing=3;shape=mxgraph.aws4.productIcon;prIcon=mxgraph.aws4.rds;" vertex="1" parent="crF3Aw2DtqwCxkJPiTV9-25">
          <mxGeometry x="40" y="40" width="80" height="100" as="geometry" />
        </mxCell>
        <mxCell id="crF3Aw2DtqwCxkJPiTV9-42" value="PUSH" style="edgeStyle=orthogonalEdgeStyle;rounded=0;orthogonalLoop=1;jettySize=auto;html=1;fontSize=8;" edge="1" parent="1" source="crF3Aw2DtqwCxkJPiTV9-39" target="crF3Aw2DtqwCxkJPiTV9-15">
          <mxGeometry relative="1" as="geometry">
            <mxPoint as="offset" />
          </mxGeometry>
        </mxCell>
        <mxCell id="crF3Aw2DtqwCxkJPiTV9-47" value="" style="group;fontSize=11;" connectable="0" vertex="1" parent="1">
          <mxGeometry x="1040" y="80" width="80" height="110" as="geometry" />
        </mxCell>
        <mxCell id="crF3Aw2DtqwCxkJPiTV9-39" value="" style="rounded=0;whiteSpace=wrap;html=1;fillColor=none;strokeColor=none;" vertex="1" parent="crF3Aw2DtqwCxkJPiTV9-47">
          <mxGeometry width="80" height="110" as="geometry" />
        </mxCell>
        <mxCell id="crF3Aw2DtqwCxkJPiTV9-26" value="Bitbucket&lt;div&gt;with&lt;/div&gt;&lt;div&gt;Pipeline&lt;/div&gt;" style="image;html=1;image=img/lib/atlassian/Bitbucket_Logo.svg;fontSize=10;" vertex="1" parent="crF3Aw2DtqwCxkJPiTV9-47">
          <mxGeometry x="11.5" y="10" width="57" height="50" as="geometry" />
        </mxCell>
        <mxCell id="crF3Aw2DtqwCxkJPiTV9-48" value="" style="group" connectable="0" vertex="1" parent="1">
          <mxGeometry x="880" y="280" width="80" height="110" as="geometry" />
        </mxCell>
        <mxCell id="crF3Aw2DtqwCxkJPiTV9-28" value="Event (event-&#xa;based)" style="sketch=0;outlineConnect=0;fontColor=#232F3E;gradientColor=none;strokeColor=#232F3E;fillColor=#ffffff;dashed=0;verticalLabelPosition=bottom;verticalAlign=top;align=center;html=1;fontSize=12;fontStyle=0;aspect=fixed;shape=mxgraph.aws4.resourceIcon;resIcon=mxgraph.aws4.event_event_based;" vertex="1" parent="crF3Aw2DtqwCxkJPiTV9-48">
          <mxGeometry x="10" y="10" width="60" height="60" as="geometry" />
        </mxCell>
        <mxCell id="crF3Aw2DtqwCxkJPiTV9-46" value="" style="rounded=0;whiteSpace=wrap;html=1;fillColor=none;strokeColor=none;" vertex="1" parent="crF3Aw2DtqwCxkJPiTV9-48">
          <mxGeometry width="80" height="110" as="geometry" />
        </mxCell>
        <mxCell id="crF3Aw2DtqwCxkJPiTV9-50" value="TRIGGER" style="edgeStyle=orthogonalEdgeStyle;rounded=0;orthogonalLoop=1;jettySize=auto;html=1;fontSize=8;" edge="1" parent="1" source="crF3Aw2DtqwCxkJPiTV9-46" target="crF3Aw2DtqwCxkJPiTV9-12">
          <mxGeometry relative="1" as="geometry" />
        </mxCell>
        <mxCell id="crF3Aw2DtqwCxkJPiTV9-59" value="" style="group" connectable="0" vertex="1" parent="1">
          <mxGeometry x="80" y="10" width="240" height="310" as="geometry" />
        </mxCell>
        <mxCell id="crF3Aw2DtqwCxkJPiTV9-54" style="edgeStyle=orthogonalEdgeStyle;rounded=0;orthogonalLoop=1;jettySize=auto;html=1;" edge="1" parent="crF3Aw2DtqwCxkJPiTV9-59" source="crF3Aw2DtqwCxkJPiTV9-18" target="crF3Aw2DtqwCxkJPiTV9-9">
          <mxGeometry relative="1" as="geometry" />
        </mxCell>
        <mxCell id="crF3Aw2DtqwCxkJPiTV9-55" style="edgeStyle=orthogonalEdgeStyle;rounded=0;orthogonalLoop=1;jettySize=auto;html=1;" edge="1" parent="crF3Aw2DtqwCxkJPiTV9-59" source="crF3Aw2DtqwCxkJPiTV9-18" target="crF3Aw2DtqwCxkJPiTV9-19">
          <mxGeometry relative="1" as="geometry" />
        </mxCell>
        <mxCell id="crF3Aw2DtqwCxkJPiTV9-18" value="Amazon Route 53" style="sketch=0;outlineConnect=0;fontColor=#232F3E;gradientColor=none;strokeColor=#ffffff;fillColor=#232F3E;dashed=0;verticalLabelPosition=middle;verticalAlign=bottom;align=center;html=1;whiteSpace=wrap;fontSize=10;fontStyle=1;spacing=3;shape=mxgraph.aws4.productIcon;prIcon=mxgraph.aws4.route_53;" vertex="1" parent="crF3Aw2DtqwCxkJPiTV9-59">
          <mxGeometry x="80" width="80" height="110" as="geometry" />
        </mxCell>
        <mxCell id="crF3Aw2DtqwCxkJPiTV9-56" style="edgeStyle=orthogonalEdgeStyle;rounded=0;orthogonalLoop=1;jettySize=auto;html=1;" edge="1" parent="crF3Aw2DtqwCxkJPiTV9-59" source="crF3Aw2DtqwCxkJPiTV9-19" target="crF3Aw2DtqwCxkJPiTV9-18">
          <mxGeometry relative="1" as="geometry">
            <Array as="points">
              <mxPoint x="20" y="55" />
            </Array>
          </mxGeometry>
        </mxCell>
        <mxCell id="crF3Aw2DtqwCxkJPiTV9-19" value="Amazon Cloudfront" style="sketch=0;outlineConnect=0;fontColor=#232F3E;gradientColor=none;strokeColor=#ffffff;fillColor=#232F3E;dashed=0;verticalLabelPosition=middle;verticalAlign=bottom;align=center;html=1;whiteSpace=wrap;fontSize=10;fontStyle=1;spacing=3;shape=mxgraph.aws4.productIcon;prIcon=mxgraph.aws4.cloudfront;" vertex="1" parent="crF3Aw2DtqwCxkJPiTV9-59">
          <mxGeometry y="200" width="80" height="110" as="geometry" />
        </mxCell>
        <mxCell id="crF3Aw2DtqwCxkJPiTV9-9" value="Amazon API Gateway" style="sketch=0;outlineConnect=0;fontColor=#232F3E;gradientColor=none;strokeColor=#ffffff;fillColor=#232F3E;dashed=0;verticalLabelPosition=middle;verticalAlign=bottom;align=center;html=1;whiteSpace=wrap;fontSize=10;fontStyle=1;spacing=3;shape=mxgraph.aws4.productIcon;prIcon=mxgraph.aws4.api_gateway;" vertex="1" parent="crF3Aw2DtqwCxkJPiTV9-59">
          <mxGeometry x="160" y="200" width="80" height="110" as="geometry" />
        </mxCell>
        <mxCell id="crF3Aw2DtqwCxkJPiTV9-67" style="edgeStyle=orthogonalEdgeStyle;rounded=0;orthogonalLoop=1;jettySize=auto;html=1;" edge="1" parent="1" source="crF3Aw2DtqwCxkJPiTV9-9" target="crF3Aw2DtqwCxkJPiTV9-5">
          <mxGeometry relative="1" as="geometry" />
        </mxCell>
        <mxCell id="crF3Aw2DtqwCxkJPiTV9-11" value="AWS Systems Manager" style="sketch=0;outlineConnect=0;fontColor=#232F3E;gradientColor=none;strokeColor=#ffffff;fillColor=#232F3E;dashed=0;verticalLabelPosition=middle;verticalAlign=bottom;align=center;html=1;whiteSpace=wrap;fontSize=10;fontStyle=1;spacing=3;shape=mxgraph.aws4.productIcon;prIcon=mxgraph.aws4.systems_manager;" vertex="1" parent="1">
          <mxGeometry x="600" y="640" width="80" height="110" as="geometry" />
        </mxCell>
        <mxCell id="crF3Aw2DtqwCxkJPiTV9-27" value="Amazon CloudWatch" style="sketch=0;outlineConnect=0;fontColor=#232F3E;gradientColor=none;strokeColor=#ffffff;fillColor=#232F3E;dashed=0;verticalLabelPosition=middle;verticalAlign=bottom;align=center;html=1;whiteSpace=wrap;fontSize=10;fontStyle=1;spacing=3;shape=mxgraph.aws4.productIcon;prIcon=mxgraph.aws4.cloudwatch;" vertex="1" parent="1">
          <mxGeometry x="600" y="520" width="80" height="110" as="geometry" />
        </mxCell>
        <mxCell id="crF3Aw2DtqwCxkJPiTV9-77" value="" style="group" connectable="0" vertex="1" parent="1">
          <mxGeometry x="600" y="280" width="80" height="110" as="geometry" />
        </mxCell>
        <mxCell id="crF3Aw2DtqwCxkJPiTV9-76" value="" style="rounded=0;whiteSpace=wrap;html=1;fillColor=none;strokeColor=none;" vertex="1" parent="crF3Aw2DtqwCxkJPiTV9-77">
          <mxGeometry width="80" height="110" as="geometry" />
        </mxCell>
        <mxCell id="crF3Aw2DtqwCxkJPiTV9-60" value="Amazon ECR" style="sketch=0;outlineConnect=0;fontColor=#232F3E;gradientColor=none;strokeColor=#ffffff;fillColor=#232F3E;dashed=0;verticalLabelPosition=middle;verticalAlign=bottom;align=center;html=1;whiteSpace=wrap;fontSize=10;fontStyle=1;spacing=3;shape=mxgraph.aws4.productIcon;prIcon=mxgraph.aws4.ecr;" vertex="1" parent="crF3Aw2DtqwCxkJPiTV9-77">
          <mxGeometry width="80" height="100" as="geometry" />
        </mxCell>
        <mxCell id="crF3Aw2DtqwCxkJPiTV9-78" value="" style="group" connectable="0" vertex="1" parent="1">
          <mxGeometry x="720" y="80" width="80" height="110" as="geometry" />
        </mxCell>
        <mxCell id="crF3Aw2DtqwCxkJPiTV9-14" value="AWS CodeBuild" style="sketch=0;outlineConnect=0;fontColor=#232F3E;gradientColor=none;strokeColor=#ffffff;fillColor=#232F3E;dashed=0;verticalLabelPosition=middle;verticalAlign=bottom;align=center;html=1;whiteSpace=wrap;fontSize=10;fontStyle=1;spacing=3;shape=mxgraph.aws4.productIcon;prIcon=mxgraph.aws4.codebuild;" vertex="1" parent="crF3Aw2DtqwCxkJPiTV9-78">
          <mxGeometry width="80" height="110" as="geometry" />
        </mxCell>
        <mxCell id="crF3Aw2DtqwCxkJPiTV9-73" value="" style="rounded=0;whiteSpace=wrap;html=1;fillColor=none;strokeColor=none;" vertex="1" parent="crF3Aw2DtqwCxkJPiTV9-78">
          <mxGeometry width="80" height="110" as="geometry" />
        </mxCell>
        <mxCell id="crF3Aw2DtqwCxkJPiTV9-79" style="edgeStyle=orthogonalEdgeStyle;rounded=0;orthogonalLoop=1;jettySize=auto;html=1;" edge="1" parent="1" source="crF3Aw2DtqwCxkJPiTV9-73" target="crF3Aw2DtqwCxkJPiTV9-15">
          <mxGeometry relative="1" as="geometry" />
        </mxCell>
        <mxCell id="crF3Aw2DtqwCxkJPiTV9-81" value="PUSH IMAGE" style="edgeStyle=orthogonalEdgeStyle;rounded=0;orthogonalLoop=1;jettySize=auto;html=1;fontSize=8;" edge="1" parent="1" source="crF3Aw2DtqwCxkJPiTV9-73" target="crF3Aw2DtqwCxkJPiTV9-76">
          <mxGeometry x="-0.2889" relative="1" as="geometry">
            <mxPoint as="offset" />
          </mxGeometry>
        </mxCell>
        <mxCell id="crF3Aw2DtqwCxkJPiTV9-83" value="" style="group" connectable="0" vertex="1" parent="1">
          <mxGeometry x="600" y="400" width="80" height="110" as="geometry" />
        </mxCell>
        <mxCell id="crF3Aw2DtqwCxkJPiTV9-17" value="Amazon S3" style="sketch=0;outlineConnect=0;fontColor=#232F3E;gradientColor=none;strokeColor=#ffffff;fillColor=#232F3E;dashed=0;verticalLabelPosition=middle;verticalAlign=bottom;align=center;html=1;whiteSpace=wrap;fontSize=10;fontStyle=1;spacing=3;shape=mxgraph.aws4.productIcon;prIcon=mxgraph.aws4.s3;" vertex="1" parent="crF3Aw2DtqwCxkJPiTV9-83">
          <mxGeometry width="80" height="100" as="geometry" />
        </mxCell>
        <mxCell id="crF3Aw2DtqwCxkJPiTV9-82" value="" style="rounded=0;whiteSpace=wrap;html=1;fillColor=none;strokeColor=none;" vertex="1" parent="crF3Aw2DtqwCxkJPiTV9-83">
          <mxGeometry width="80" height="110" as="geometry" />
        </mxCell>
        <mxCell id="crF3Aw2DtqwCxkJPiTV9-88" value="WATCH" style="edgeStyle=orthogonalEdgeStyle;rounded=0;orthogonalLoop=1;jettySize=auto;html=1;fontSize=8;" edge="1" parent="1" source="crF3Aw2DtqwCxkJPiTV9-46" target="crF3Aw2DtqwCxkJPiTV9-15">
          <mxGeometry relative="1" as="geometry">
            <mxPoint as="offset" />
          </mxGeometry>
        </mxCell>
        <mxCell id="crF3Aw2DtqwCxkJPiTV9-96" value="Internet&#xa;gateway" style="sketch=0;outlineConnect=0;fontColor=#232F3E;gradientColor=none;strokeColor=#232F3E;fillColor=#ffffff;dashed=0;verticalLabelPosition=bottom;verticalAlign=top;align=center;html=1;fontSize=12;fontStyle=0;aspect=fixed;shape=mxgraph.aws4.resourceIcon;resIcon=mxgraph.aws4.internet_gateway;" vertex="1" parent="1">
          <mxGeometry x="50" y="650" width="60" height="60" as="geometry" />
        </mxCell>
      </root>
    </mxGraphModel>
  </diagram>
</mxfile>
